<?xml version="1.0" encoding="UTF-8"?>
<svg id="b" data-name="Layer 2" xmlns="http://www.w3.org/2000/svg" viewBox="0 0 112.23 108">
  <defs>
    <style>
      .d {
        fill: #4064af;
      }
    </style>
  </defs>
  <g id="c" data-name="Layer 2">
    <g>
      <g>
        <path class="d" d="m112.23,108h-24.5l-.17-2.32c-.06-.83-1.38-20.39,8.04-30.52,1.16-1.25,2.43-2.31,3.81-3.16-24.26-10.61-30.22-55.99-31.32-67h-11.98V0h56.12v108Zm-19.75-5h14.75v-28.61c-3.17.46-5.79,1.83-7.96,4.16-6.23,6.7-6.83,19.27-6.8,24.45ZM73.14,5c1.31,12.03,8.2,60.54,34.09,64.03V5h-34.09Z"/>
        <path class="d" d="m108.9,74.08c-27.52-9.74-28.45-69.03-28.47-71.55l5-.05c0,.58.9,58.31,25.14,66.89l-1.67,4.71Z"/>
        <path class="d" d="m107.98,73.5C91.24,56.96,91.69,4.69,91.72,2.47l5,.06c0,.52-.46,52.36,14.77,67.41l-3.51,3.56Z"/>
        <path class="d" d="m96.57,105.68c-.09-1.22-2.03-29.97,12.15-36.25l2.02,4.57c-9.12,4.04-9.73,23.97-9.19,31.31l-4.99.37Z"/>
      </g>
      <g>
        <path class="d" d="m24.5,108H0V0h56.12v5h-11.98c-1.1,11.01-7.06,56.38-31.32,67,1.38.86,2.65,1.91,3.81,3.16,9.42,10.14,8.1,29.7,8.04,30.52l-.17,2.32Zm-19.5-5h14.75c.04-5.18-.56-17.75-6.8-24.45-2.17-2.33-4.79-3.71-7.96-4.16v28.61ZM5,5v64.03c25.89-3.49,32.78-51.99,34.09-64.03H5Z"/>
        <path class="d" d="m3.33,74.08l-1.67-4.71C25.9,60.78,26.8,3.06,26.81,2.47l5,.05c-.03,2.52-.96,61.81-28.47,71.55Z"/>
        <path class="d" d="m4.26,73.5l-3.51-3.56C15.98,54.89,15.52,3.05,15.52,2.53l5-.06c.03,2.22.48,54.49-16.26,71.03Z"/>
        <path class="d" d="m15.66,105.68l-4.99-.36c.53-7.34-.08-27.28-9.19-31.31l2.02-4.57c14.18,6.28,12.24,35.03,12.15,36.25Z"/>
      </g>
      <path class="d" d="m56.12,22.06c-9.25,0-16.77-8.77-16.77-19.56h5c0,8.03,5.28,14.56,11.77,14.56s11.77-6.53,11.77-14.56h5c0,10.78-7.52,19.56-16.77,19.56Z"/>
      <path class="d" d="m56.12,37.04c-7.43,0-14.51-3.27-19.94-9.22l3.69-3.37c4.47,4.9,10.24,7.59,16.25,7.59s11.78-2.7,16.25-7.59l3.69,3.37c-5.43,5.94-12.51,9.22-19.94,9.22Z"/>
    </g>
  </g>
</svg>