<?xml version="1.0" encoding="UTF-8"?>
<svg id="b" data-name="Layer 2" xmlns="http://www.w3.org/2000/svg" viewBox="0 0 109.84 112.34">
  <defs>
    <style>
      .d {
        fill: #4064af;
      }
    </style>
  </defs>
  <g id="c" data-name="Layer 2">
    <g>
      <g>
        <polygon class="d" points="100.62 24.51 9.26 24.51 6.22 30.47 103.64 30.47 100.62 24.51"/>
        <polygon class="d" points="88.22 0 21.72 0 18.7 5.96 91.23 5.96 88.22 0"/>
        <polygon class="d" points="94.42 12.26 15.49 12.26 12.46 18.21 97.44 18.21 94.42 12.26"/>
        <polyline class="d" points="0 42.7 .05 42.6 .05 42.72 109.84 42.72 106.82 36.77 3.02 36.77 .05 42.6"/>
        <polygon class="d" points="5.96 42.72 0 42.72 21.72 0 27.69 0 5.96 42.72"/>
        <polygon class="d" points="103.88 42.72 109.84 42.72 88.12 0 82.15 0 103.88 42.72"/>
      </g>
      <g>
        <path class="d" d="m73.81,92.31h-38.7v-17.4h38.7v17.4Zm-33.7-5h28.7v-7.4h-28.7v7.4Z"/>
        <path class="d" d="m22.58,91.75c-4.49,0-8.14-3.65-8.14-8.14s3.65-8.14,8.14-8.14,8.14,3.65,8.14,8.14-3.65,8.14-8.14,8.14Zm0-11.28c-1.73,0-3.14,1.41-3.14,3.14s1.41,3.14,3.14,3.14,3.14-1.41,3.14-3.14-1.41-3.14-3.14-3.14Z"/>
        <path class="d" d="m86.35,91.75c-4.49,0-8.14-3.65-8.14-8.14s3.65-8.14,8.14-8.14,8.14,3.65,8.14,8.14-3.65,8.14-8.14,8.14Zm0-11.28c-1.73,0-3.14,1.41-3.14,3.14s1.41,3.14,3.14,3.14,3.14-1.41,3.14-3.14-1.41-3.14-3.14-3.14Z"/>
        <rect class="d" x="22.58" y="66.41" width="63.77" height="5"/>
        <polygon class="d" points="84.27 70.29 73.21 53.7 35.71 53.7 24.66 70.29 20.5 67.52 33.04 48.7 75.88 48.7 88.43 67.52 84.27 70.29"/>
        <path class="d" d="m37.56,112.34h-14.39l-.05-2.55v-8.97h-.08c-9.49,0-17.24-7.22-17.65-16.43-.21-4.75,1.48-9.25,4.76-12.67,3.28-3.42,7.69-5.31,12.43-5.31v5c-3.36,0-6.5,1.34-8.82,3.77-2.32,2.43-3.52,5.62-3.37,8.99.28,6.42,5.96,11.65,12.65,11.65h5.03l.05,2.55v8.97h6.99v-9.02h5v13.97l-2.55.05Z"/>
        <path class="d" d="m83.25,112.34h-14.39l-.05-2.55v-11.47h5v9.02h6.99v-11.47l5.08-.05c6.7,0,12.37-5.23,12.65-11.65.15-3.37-1.05-6.56-3.37-8.99-2.33-2.43-5.46-3.77-8.82-3.77v-5c4.74,0,9.16,1.89,12.43,5.31,3.28,3.42,4.97,7.92,4.76,12.67-.41,9.21-8.16,16.43-17.65,16.43h-.08v11.47l-2.55.05Z"/>
      </g>
    </g>
  </g>
</svg>