<?xml version="1.0" encoding="UTF-8"?>
<svg id="b" data-name="Layer 2" xmlns="http://www.w3.org/2000/svg" viewBox="0 0 759.5 159.12">
  <defs>
    <style>
      .d {
        fill: #005cb9;
      }
    </style>
  </defs>
  <g id="c" data-name="Layer 1">
    <g>
      <path class="d" d="m759.3,80.92c0,14.1.36,28.22-.09,42.31-.64,20.02-14.14,33.97-34.21,34.94-14.21.69-28.51.77-42.7,0-20.38-1.11-36.89-18.7-37.13-39.17-.3-25.54-.61-51.1.16-76.63.67-22.25,10.62-37.03,35.95-38.62,15.49-.98,31.17-.82,46.65.39,18.18,1.42,30.64,15.16,31.3,33.33.53,14.47.11,28.96.11,43.45-.01,0-.02,0-.04,0Zm-89.98.43h-.09c0,12.02-.13,24.04.04,36.05.17,12.25,5.66,17.75,17.92,18.02,9.33.2,18.66.16,27.99.1,15.51-.1,20.12-4.42,20.37-20.07.37-22.88.35-45.78.43-68.66,0-2.08-.3-4.19-.68-6.24-1.86-10.01-6.09-13.75-16.24-13.93-10.09-.19-20.19-.16-30.28-.08-14.12.12-19.32,5.28-19.45,19.34-.11,11.83-.02,23.65-.02,35.48Z"/>
      <path class="d" d="m253.31,158.17c-8.18,0-15.4.28-22.57-.2-1.74-.12-4.07-2.46-4.84-4.31-3.1-7.52-5.82-15.22-8.45-22.93-1.34-3.93-3.48-5.59-7.87-5.54-18.46.2-36.93.17-55.39-.13-4.62-.08-6.93,1.57-8.38,5.78-2.6,7.53-5.74,14.87-8.3,22.41-1.27,3.72-3.36,4.98-7.17,4.82-6.38-.26-12.77-.07-19.99-.07.97-3.63,1.42-6.2,2.33-8.6,10.22-27.14,20.5-54.26,30.77-81.39,6.78-17.9,13.51-35.83,20.36-53.7,4.28-11.17,11.05-15.45,21.68-14.03,7.55,1.01,11.86,6.42,14.33,12.58,6.64,16.55,12.5,33.4,18.66,50.15,6.81,18.52,13.6,37.05,20.38,55.58,4.74,12.96,9.45,25.93,14.43,39.6Zm-71.53-123.01c-1.25,2.26-1.7,2.87-1.95,3.55-7.16,19.57-14.25,39.16-21.47,58.71-1.59,4.31.99,4.47,3.93,4.48,12.92.04,25.84,0,38.76.11,4.46.04,5.06-1.44,3.47-5.56-4.42-11.46-8.3-23.14-12.53-34.68-3.11-8.48-6.46-16.86-10.21-26.61Z"/>
      <path class="d" d="m529.58,3.08c0,6.5.26,13.34-.25,20.13-.09,1.16-3.43,2.95-5.29,2.97-18.28.17-36.57.03-54.85-.01-2.09,0-4.19-.03-6.28.09-8.09.47-11.58,3.39-12.11,11.45-.42,6.43-.24,12.98.51,19.38.96,8.24,5.01,11.56,13.34,11.72,9.9.19,19.84-.38,29.7.26,14.55.95,26.4,6.89,32.46,21.09,1.22,2.86,1.55,6.27,1.6,9.44.16,8.96.15,17.94-.12,26.9-.49,16.44-14.44,31.28-30.81,31.68-22.84.56-45.7.2-68.56.2-.73,0-1.46-.28-2.81-.56,0-6.61-.27-13.24.26-19.81.09-1.1,3.61-2.73,5.55-2.75,18.47-.16,36.95,0,55.42.01,11.87,0,16.51-4.53,16.76-16.42.11-5.15.15-10.31-.18-15.44-.48-7.52-4.28-11.35-11.89-11.67-8.56-.37-17.15.11-25.7-.37-12.8-.72-25.21-3.37-33.41-14.34-3.12-4.18-5.56-9.75-5.98-14.88-.86-10.41-.91-21.03.12-31.42,1.32-13.27,10.47-27.07,28.94-28.05,23.92-1.26,47.96-.36,71.94-.36.34,0,.68.32,1.63.79Z"/>
      <path class="d" d="m.57,79.28c0-13.54-.22-27.09.05-40.62C1.09,14.89,15.9.56,39.68.55c19.99,0,39.99.14,59.98-.03,4.18-.03,5.94,1.1,5.57,5.47-.32,3.79-.06,7.62-.07,11.44q-.02,7.59-7.34,7.56c-18.66-.02-37.32-.08-55.98-.04-12.86.03-16.71,3.76-16.85,16.66-.27,24.03-.45,48.06-.51,72.09-.04,14.54,5.5,19.9,20.07,19.94,17.71.05,35.42.24,53.13.1,4.52-.04,6.78,1.05,6.3,6.02-.56,5.81,1.35,13.51-1.69,16.92-2.62,2.94-10.68,1.22-16.34,1.22-16.18.02-32.38.12-48.55-.28-13.75-.35-25.66-5.55-32.16-18.08-3.26-6.29-4.42-14.13-4.84-21.37-.75-12.93-.21-25.93-.21-38.89.13,0,.26,0,.39,0Z"/>
      <path class="d" d="m631.22,26.46h-33.11c-.15,2.27-.38,4.27-.39,6.26-.27,39.64-.62,79.29-.63,118.93,0,5.73-1.57,7.56-7.4,7.47-16.95-.26-16.84-.02-16.78-16.72.14-36.79.08-73.58.32-110.36.03-4.63-1.54-5.93-5.92-5.79-7.79.25-15.6-.11-23.4.07-3.72.08-5.17-1.31-5.01-5,.22-4.95.26-9.91.18-14.86-.05-3.23,1.4-4.34,4.48-4.33,27.78.09,55.57.06,83.35.27,1.45.01,4.06,1.86,4.12,2.96.39,6.78.19,13.6.19,21.12Z"/>
      <path class="d" d="m263.95,64.68c0-18.32,0-36.63,0-54.95q0-8.64,8.9-8.65c3.24,0,6.49.19,9.71-.04,4.49-.31,5.82,1.5,5.78,6-.22,29-.17,58-.2,87,0,8.58-.09,17.17.05,25.75.15,9.26,4.21,13.81,13.56,14.08,15.8.45,31.61.32,47.42.44,4.19.03,8.38.14,12.57.12,3.06-.01,4.54,1.27,4.47,4.47-.11,5.15-.12,10.3-.02,15.45.06,2.96-1.21,3.99-4.12,3.97-20.76-.13-41.55.46-62.27-.39-22.1-.92-35.54-15.58-36.02-37.72-.2-9.34-.03-18.7-.02-28.04,0-9.16,0-18.31,0-27.47.06,0,.13,0,.19,0Z"/>
      <path class="d" d="m404.62,1.78c0,20.54.06,39.98-.01,59.42-.12,30.13-.41,60.26-.4,90.39,0,5.01-1.16,7.48-6.68,6.87-3.95-.44-8.01-.37-11.98-.01-4.63.41-5.79-1.46-5.75-5.88.23-22.88.18-45.77.22-68.66.05-25.17.24-50.35.02-75.52-.05-5.35,1.65-7.05,6.84-6.69,5.64.39,11.33.09,17.75.09Z"/>
    </g>
  </g>
</svg>