<?xml version="1.0" encoding="UTF-8"?>
<svg id="b" data-name="Layer 2" xmlns="http://www.w3.org/2000/svg" viewBox="0 0 111.36 109.84">
  <defs>
    <style>
      .d {
        fill: #4064af;
      }
    </style>
  </defs>
  <g id="c" data-name="Layer 2">
    <g>
      <rect class="d" x="35.7" width="5.96" height="109.84"/>
      <rect class="d" x="47.32" width="5.96" height="109.84"/>
      <rect class="d" x="58.94" width="5.96" height="109.84"/>
      <rect class="d" x="70.55" width="5.96" height="109.84"/>
      <rect class="d" x="82.17" width="5.96" height="109.84"/>
      <rect class="d" x="93.79" width="5.96" height="109.84"/>
      <rect class="d" x="105.4" width="5.96" height="109.84"/>
      <rect class="d" x="70.55" y="-13.72" width="5.96" height="75.66" transform="translate(49.42 97.64) rotate(-90)"/>
      <rect class="d" x="70.55" y="52.49" width="5.96" height="75.66" transform="translate(-16.79 163.85) rotate(-90)"/>
      <rect class="d" x="4.74" y="82.6" width="5.96" height="15.45" transform="translate(-82.6 98.05) rotate(-90)"/>
      <g>
        <rect class="d" x="20.04" y="85.97" width="5.96" height="15.45" transform="translate(-26.95 176.22) rotate(-135)"/>
        <rect class="d" x="20.04" y="79.23" width="5.96" height="15.45" transform="translate(-54.74 41.75) rotate(-45)"/>
      </g>
      <rect class="d" x="19.89" y="16.39" width="5.96" height="15.45" transform="translate(46.98 1.24) rotate(90)"/>
      <g>
        <rect class="d" x="4.59" y="13.02" width="5.96" height="15.45" transform="translate(16.88 .72) rotate(45)"/>
        <rect class="d" x="4.59" y="19.75" width="5.96" height="15.45" transform="translate(32.35 41.56) rotate(135)"/>
      </g>
    </g>
  </g>
</svg>