<?xml version="1.0" encoding="UTF-8"?>
<svg id="b" data-name="Layer 2" xmlns="http://www.w3.org/2000/svg" viewBox="0 0 109.87 109.84">
  <defs>
    <style>
      .d {
        fill: #4064af;
      }
    </style>
  </defs>
  <g id="c" data-name="Layer 2">
    <g>
      <g>
        <polygon class="d" points="24.51 9.22 24.51 100.58 30.47 103.61 30.47 6.2 24.51 9.22"/>
        <polygon class="d" points="0 21.62 0 88.12 5.96 91.14 5.96 18.6 0 21.62"/>
        <polygon class="d" points="12.26 15.42 12.26 94.34 18.21 97.38 18.21 12.4 12.26 15.42"/>
        <polyline class="d" points="42.7 109.84 42.6 109.79 42.72 109.79 42.72 0 36.77 3.01 36.77 106.82 42.6 109.79"/>
        <rect class="d" x="0" y="51.66" width="42.72" height="5.96"/>
      </g>
      <g>
        <polygon class="d" points="85.36 9.22 85.36 100.58 79.4 103.61 79.4 6.2 85.36 9.22"/>
        <polygon class="d" points="109.87 21.62 109.87 88.12 103.91 91.14 103.91 18.6 109.87 21.62"/>
        <polygon class="d" points="97.62 15.42 97.62 94.34 91.66 97.38 91.66 12.4 97.62 15.42"/>
        <polyline class="d" points="67.17 109.84 67.27 109.79 67.15 109.79 67.15 0 73.11 3.01 73.11 106.82 67.27 109.79"/>
        <rect class="d" x="67.15" y="51.66" width="42.72" height="5.96"/>
      </g>
    </g>
  </g>
</svg>