<?xml version="1.0" encoding="UTF-8"?>
<svg id="b" data-name="Layer 2" xmlns="http://www.w3.org/2000/svg" viewBox="0 0 112.67 109.01">
  <defs>
    <style>
      .d {
        fill: #4064af;
      }
    </style>
  </defs>
  <g id="c" data-name="Layer 2">
    <g>
      <path class="d" d="m112.67,109.01H0V0h112.67v109.01Zm-107.57-5.1h102.48V5.1H5.09v98.82Z"/>
      <path class="d" d="m57.95,108.96c-1.38,0-2.5-1.12-2.5-2.5V2.55c0-1.38,1.12-2.5,2.5-2.5s2.5,1.12,2.5,2.5v103.92c0,1.38-1.12,2.5-2.5,2.5Z"/>
      <path class="d" d="m31.99,108.96c-1.38,0-2.5-1.12-2.5-2.5V2.55c0-1.38,1.12-2.5,2.5-2.5s2.5,1.12,2.5,2.5v103.92c0,1.38-1.12,2.5-2.5,2.5Z"/>
      <path class="d" d="m83.91,108.96c-1.38,0-2.5-1.12-2.5-2.5V2.55c0-1.38,1.12-2.5,2.5-2.5s2.5,1.12,2.5,2.5v103.92c0,1.38-1.12,2.5-2.5,2.5Z"/>
      <path class="d" d="m31.99,15.52H2.55C1.17,15.52.05,14.4.05,13.02s1.12-2.5,2.5-2.5h29.45c1.38,0,2.5,1.12,2.5,2.5s-1.12,2.5-2.5,2.5Z"/>
      <path class="d" d="m31.99,27.5H2.55c-1.38,0-2.5-1.12-2.5-2.5s1.12-2.5,2.5-2.5h29.45c1.38,0,2.5,1.12,2.5,2.5s-1.12,2.5-2.5,2.5Z"/>
      <path class="d" d="m31.99,39.49H2.55c-1.38,0-2.5-1.12-2.5-2.5s1.12-2.5,2.5-2.5h29.45c1.38,0,2.5,1.12,2.5,2.5s-1.12,2.5-2.5,2.5Z"/>
      <path class="d" d="m31.99,51.48H2.55c-1.38,0-2.5-1.12-2.5-2.5s1.12-2.5,2.5-2.5h29.45c1.38,0,2.5,1.12,2.5,2.5s-1.12,2.5-2.5,2.5Z"/>
      <path class="d" d="m31.99,63.47H2.55c-1.38,0-2.5-1.12-2.5-2.5s1.12-2.5,2.5-2.5h29.45c1.38,0,2.5,1.12,2.5,2.5s-1.12,2.5-2.5,2.5Z"/>
      <path class="d" d="m31.99,75.46H2.55c-1.38,0-2.5-1.12-2.5-2.5s1.12-2.5,2.5-2.5h29.45c1.38,0,2.5,1.12,2.5,2.5s-1.12,2.5-2.5,2.5Z"/>
      <path class="d" d="m31.99,87.44H2.55c-1.38,0-2.5-1.12-2.5-2.5s1.12-2.5,2.5-2.5h29.45c1.38,0,2.5,1.12,2.5,2.5s-1.12,2.5-2.5,2.5Z"/>
      <path class="d" d="m31.99,99.43H2.55c-1.38,0-2.5-1.12-2.5-2.5s1.12-2.5,2.5-2.5h29.45c1.38,0,2.5,1.12,2.5,2.5s-1.12,2.5-2.5,2.5Z"/>
      <path class="d" d="m110.12,15.38h-26.21c-1.3,0-2.36-1.06-2.36-2.36s1.06-2.36,2.36-2.36h26.21c1.3,0,2.36,1.06,2.36,2.36s-1.06,2.36-2.36,2.36Z"/>
      <path class="d" d="m110.12,27.36h-26.21c-1.3,0-2.36-1.06-2.36-2.36s1.06-2.36,2.36-2.36h26.21c1.3,0,2.36,1.06,2.36,2.36s-1.06,2.36-2.36,2.36Z"/>
      <path class="d" d="m110.12,39.35h-26.21c-1.3,0-2.36-1.06-2.36-2.36s1.06-2.36,2.36-2.36h26.21c1.3,0,2.36,1.06,2.36,2.36s-1.06,2.36-2.36,2.36Z"/>
      <path class="d" d="m110.12,51.34h-26.21c-1.3,0-2.36-1.06-2.36-2.36s1.06-2.36,2.36-2.36h26.21c1.3,0,2.36,1.06,2.36,2.36s-1.06,2.36-2.36,2.36Z"/>
      <path class="d" d="m110.12,63.33h-26.21c-1.3,0-2.36-1.06-2.36-2.36s1.06-2.36,2.36-2.36h26.21c1.3,0,2.36,1.06,2.36,2.36s-1.06,2.36-2.36,2.36Z"/>
      <path class="d" d="m110.12,75.31h-26.21c-1.3,0-2.36-1.06-2.36-2.36s1.06-2.36,2.36-2.36h26.21c1.3,0,2.36,1.06,2.36,2.36s-1.06,2.36-2.36,2.36Z"/>
      <path class="d" d="m110.12,87.3h-26.21c-1.3,0-2.36-1.06-2.36-2.36s1.06-2.36,2.36-2.36h26.21c1.3,0,2.36,1.06,2.36,2.36s-1.06,2.36-2.36,2.36Z"/>
      <path class="d" d="m110.12,99.29h-26.21c-1.3,0-2.36-1.06-2.36-2.36s1.06-2.36,2.36-2.36h26.21c1.3,0,2.36,1.06,2.36,2.36s-1.06,2.36-2.36,2.36Z"/>
      <path class="d" d="m50.46,67.63c-.6,0-1.21-.23-1.67-.69-.92-.92-.92-2.42,0-3.34l15.15-15.15c.92-.92,2.42-.92,3.34,0,.92.92.92,2.42,0,3.34l-15.15,15.15c-.46.46-1.06.69-1.67.69Z"/>
    </g>
  </g>
</svg>